<?xml version="1.0" encoding="UTF-8" ?>
<!DOCTYPE svg PUBLIC "-//W3C//DTD SVG 1.1//EN" "http://www.w3.org/Graphics/SVG/1.1/DTD/svg11.dtd">
<svg width="575pt" height="657pt" viewBox="0 0 575 657" version="1.1" xmlns="http://www.w3.org/2000/svg">
<g id="#ffffffff">
<path fill="#ffffff" opacity="1.00" d=" M 483.74 5.53 C 488.82 0.83 496.28 -0.22 502.93 0.47 C 515.49 1.87 524.72 11.43 535.22 17.44 C 540.79 19.49 546.33 21.70 552.12 23.06 C 556.34 24.02 560.20 26.12 564.47 26.88 C 567.88 27.40 570.75 29.37 573.92 30.59 C 573.93 31.14 573.94 32.25 573.95 32.80 C 570.33 35.06 565.73 33.02 561.92 34.94 C 564.52 37.93 568.60 38.44 572.05 39.95 C 572.62 40.85 573.21 41.74 573.82 42.62 C 573.88 43.08 573.99 44.01 574.05 44.47 C 569.60 46.31 564.69 45.57 560.01 45.79 C 543.54 45.93 526.17 44.98 510.92 52.29 C 508.27 53.26 507.60 56.53 507.82 59.03 C 507.85 66.09 513.04 71.60 517.93 76.07 C 525.33 81.92 532.93 87.54 540.12 93.65 C 545.98 98.17 551.58 103.05 556.44 108.64 C 561.66 115.59 566.56 122.88 569.76 131.01 C 571.11 135.37 571.97 139.87 573.37 144.22 C 575.68 155.46 575.41 167.15 573.38 178.41 C 571.31 183.84 570.78 189.83 568.03 195.02 C 558.40 218.36 542.57 239.42 521.71 253.87 C 512.24 261.00 501.85 266.73 491.79 272.94 C 488.31 274.54 485.46 278.01 485.56 281.97 C 485.33 290.98 486.26 300.04 485.11 309.01 C 483.89 316.15 483.48 323.64 480.14 330.21 C 477.66 337.15 473.51 343.36 468.65 348.85 C 458.14 360.73 444.07 369.08 429.11 374.10 C 421.95 377.43 414.01 378.32 406.41 380.20 C 396.34 382.07 386.05 382.28 375.86 383.08 C 367.82 383.98 359.69 383.00 351.64 383.80 C 346.21 386.24 344.72 392.83 340.84 396.96 C 335.77 400.98 330.10 404.07 324.67 407.55 C 319.38 410.92 316.59 416.71 313.07 421.66 C 311.35 424.40 308.67 426.96 309.47 430.50 C 324.48 424.92 340.10 421.26 355.09 415.68 C 359.86 414.57 364.58 413.29 369.14 411.51 C 378.41 408.99 387.45 405.73 396.61 402.86 C 408.70 399.95 420.41 394.56 433.03 394.62 C 441.42 394.70 448.45 400.41 452.93 407.09 C 459.37 417.28 465.99 427.34 472.55 437.47 C 475.39 442.49 479.90 447.00 480.30 453.04 C 480.74 455.01 479.00 456.69 477.06 456.50 C 470.48 456.89 465.29 452.25 460.21 448.77 C 453.64 444.35 449.33 437.51 443.33 432.48 C 439.45 436.18 442.46 441.50 442.64 445.96 C 442.99 448.95 438.97 450.05 436.80 448.88 C 433.43 448.01 431.65 444.74 429.62 442.21 C 427.69 437.96 427.86 433.12 427.29 428.56 C 425.48 424.95 421.73 423.76 417.92 424.67 C 397.75 429.40 378.16 436.23 358.37 442.30 C 350.84 444.19 343.76 447.47 336.14 449.07 C 328.32 452.23 319.93 453.78 312.20 457.22 C 307.01 460.32 302.10 464.17 296.16 465.77 C 292.02 467.05 287.12 467.12 283.45 464.55 C 277.66 460.79 274.58 453.77 274.96 446.97 C 274.47 437.22 279.82 428.74 282.94 419.88 C 284.21 415.43 286.11 411.18 288.33 407.13 C 291.22 403.51 294.12 399.43 294.48 394.67 C 288.75 396.22 283.12 398.19 277.65 400.52 C 271.75 402.59 265.57 404.02 260.03 407.00 C 246.06 417.32 232.34 428.00 218.35 438.30 C 213.86 442.12 208.40 444.82 204.60 449.42 C 202.32 454.49 201.43 460.35 197.64 464.64 C 193.03 470.99 186.25 475.60 178.80 477.99 C 174.53 479.39 172.13 483.40 169.69 486.88 C 164.83 492.35 160.49 498.26 155.80 503.87 C 150.56 510.93 145.23 517.95 139.61 524.72 C 133.13 534.07 125.70 542.73 119.27 552.12 C 113.02 560.62 106.69 569.06 100.86 577.86 C 96.15 585.72 90.91 593.26 86.16 601.09 C 80.51 608.05 73.74 613.99 67.49 620.39 C 63.72 624.67 60.36 629.27 56.76 633.68 C 54.69 636.17 53.72 639.34 51.77 641.91 C 49.60 646.71 47.27 651.44 45.05 656.23 C 44.27 656.38 42.69 656.69 41.90 656.85 C 39.85 655.14 37.93 653.13 37.38 650.42 C 35.50 642.25 35.62 633.47 38.49 625.54 C 41.61 618.75 44.02 611.47 49.04 605.76 C 50.35 604.42 50.93 602.61 51.59 600.92 C 50.97 600.61 49.74 599.99 49.12 599.68 C 46.64 601.04 43.92 601.76 41.08 601.65 C 39.52 599.79 37.68 597.65 38.50 595.03 C 41.00 585.67 48.85 578.50 57.53 574.71 C 63.44 571.88 70.38 572.50 76.19 569.44 C 80.31 567.63 82.49 563.43 85.26 560.15 C 87.00 558.23 88.28 555.97 89.70 553.82 C 108.26 528.22 125.93 501.98 144.33 476.27 C 145.95 473.59 147.81 471.06 149.63 468.52 C 152.66 464.19 152.98 458.78 154.40 453.84 C 155.21 450.22 157.38 447.14 159.18 443.97 C 164.15 437.90 171.26 434.35 178.47 431.64 C 184.60 429.63 189.02 424.72 194.25 421.21 C 197.74 418.03 201.58 415.28 205.06 412.09 C 211.16 407.57 216.20 401.84 221.93 396.87 C 227.55 390.79 233.39 384.80 237.66 377.65 C 238.41 376.28 238.99 374.47 238.06 373.04 C 230.28 370.19 221.92 369.46 214.05 366.87 C 189.26 360.69 164.61 351.99 143.58 337.16 C 138.61 333.56 132.17 334.54 126.58 335.81 C 116.95 338.25 106.94 338.99 97.51 342.24 C 86.00 345.21 76.32 352.45 66.11 358.22 C 64.11 359.38 61.74 358.80 59.60 358.51 C 56.80 353.88 57.91 348.14 57.97 343.00 C 58.07 337.60 60.76 332.85 62.41 327.86 C 61.93 326.82 61.45 325.77 60.98 324.73 C 58.07 325.66 55.34 327.10 53.42 329.54 C 48.51 333.15 43.89 337.31 40.25 342.21 C 37.43 344.43 35.05 348.32 30.95 347.82 C 27.49 347.90 25.19 344.37 24.85 341.25 C 22.62 330.17 27.55 319.62 31.10 309.42 C 30.55 308.44 30.13 307.37 29.27 306.63 C 24.98 307.20 21.24 309.50 17.27 311.04 C 12.13 313.10 7.48 317.27 1.63 316.75 C 1.07 315.77 0.52 314.78 0.00 313.78 L 0.00 310.59 C 0.40 306.83 1.25 303.09 2.81 299.64 C 7.01 289.06 12.43 278.73 20.45 270.51 C 28.24 261.73 37.98 254.84 48.48 249.69 C 62.08 243.59 77.41 241.95 92.12 243.88 C 97.71 244.28 102.58 247.98 108.32 247.34 C 107.88 243.66 105.55 240.36 106.43 236.52 C 109.42 233.27 114.13 234.42 118.04 234.22 C 132.45 234.06 146.99 235.33 161.24 232.65 C 169.03 231.76 176.78 230.34 184.16 227.63 C 192.04 225.68 198.99 221.38 206.39 218.20 C 233.86 204.23 261.39 189.91 291.06 181.15 C 302.14 178.04 313.47 176.06 324.85 174.40 C 338.98 173.11 353.22 173.35 367.33 174.69 C 373.15 175.82 379.04 176.58 384.86 177.71 C 394.06 180.20 403.18 183.13 411.67 187.53 C 423.91 193.97 435.48 201.60 447.37 208.66 C 452.13 211.44 457.93 210.24 462.94 208.84 C 470.03 206.24 477.84 206.97 485.10 208.44 C 491.00 209.57 497.07 209.43 503.05 209.20 C 512.57 207.67 521.30 202.86 528.64 196.74 C 535.49 190.90 540.17 182.76 542.17 174.03 C 544.41 167.24 543.52 159.96 543.53 152.94 C 542.69 138.76 533.46 126.84 522.63 118.38 C 507.13 106.48 491.20 94.33 480.34 77.78 C 475.54 69.21 471.09 59.94 470.89 49.92 C 470.62 40.91 470.32 31.63 473.33 22.99 C 475.49 16.55 478.40 9.96 483.74 5.53 Z" />
</g>
</svg>
